<svg width="1368" height="386" viewBox="0 0 1368 386" fill="none" xmlns="http://www.w3.org/2000/svg">
<path d="M219.428 183.055C220.566 185.282 222.831 186.568 225.173 186.568C226.15 186.568 227.154 186.342 228.087 185.867C228.466 185.674 266.333 166.438 285.009 160.539C288.393 159.464 290.271 155.849 289.197 152.465C288.129 149.081 284.539 147.196 281.123 148.264C261.45 154.485 223.841 173.592 222.246 174.403C219.08 176.011 217.82 179.884 219.428 183.055Z" fill="black"/>
<path d="M225.173 109.369C226.15 109.369 227.154 109.144 228.087 108.668C228.466 108.475 266.333 89.2392 285.009 83.3399C288.393 82.2656 290.271 78.6499 289.197 75.2664C288.129 71.8821 284.539 69.9974 281.123 71.0657C261.45 77.2868 223.841 96.3937 222.246 97.2041C219.081 98.8122 217.82 102.685 219.428 105.857C220.566 108.082 222.831 109.369 225.173 109.369Z" fill="black"/>
<path d="M379.566 96.5022C376.008 96.5022 373.133 99.3844 373.133 102.935V353.833C373.133 364.474 364.474 373.133 353.833 373.133H199.434V358.33C208.814 355.049 233.247 347.4 257.334 347.4C313.374 347.4 351.427 359.81 351.807 359.938C353.743 360.581 355.905 360.26 357.597 359.05C359.275 357.841 360.266 355.898 360.266 353.833V70.7694C360.266 67.7523 358.176 65.14 355.229 64.4901C355.229 64.4901 350.185 63.3646 341.564 61.7814C338.083 61.1383 334.719 63.4543 334.076 66.9411C333.433 70.4407 335.742 73.7925 339.235 74.4356C342.523 75.0402 345.276 75.574 347.399 75.9992V345.283C332.821 341.462 300.449 334.533 257.333 334.533C229.303 334.533 201.769 343.739 193.251 346.86C185.679 343.515 162.789 334.533 135.1 334.533C90.7875 334.533 54.2851 341.842 38.601 345.554V75.7481C51.4482 72.5893 89.392 64.3356 135.1 64.3356C158.556 64.3356 178.673 71.6371 186.567 74.9377V328.1C186.567 330.416 187.814 332.559 189.828 333.697C191.842 334.843 194.325 334.81 196.313 333.614C196.95 333.234 260.691 295.162 317.265 276.306C319.896 275.425 321.666 272.974 321.666 270.201V6.43603C321.666 4.32587 320.63 2.35065 318.893 1.14818C317.169 -0.0550475 314.956 -0.331729 312.968 0.408601C261.495 19.7145 209.412 52.1254 208.89 52.4473C205.879 54.3321 204.96 58.3014 206.844 61.3124C208.723 64.3235 212.692 65.2433 215.709 63.3585C216.185 63.0562 261.495 34.8656 308.799 15.8425V265.595C264.885 280.855 219.035 305.771 199.433 316.926V70.7694C199.433 68.3313 198.056 66.105 195.875 65.0118C194.768 64.4652 168.405 51.4695 135.1 51.4695C76.9692 51.4695 32.2772 64.0468 30.3985 64.5866C27.6385 65.3714 25.7341 67.9 25.7341 70.7694V353.834C25.7341 355.848 26.6863 357.752 28.2884 358.968C29.4207 359.824 30.7845 360.268 32.1679 360.268C32.7597 360.268 33.3516 360.184 33.9305 360.017C34.3746 359.895 78.8607 347.401 135.1 347.401C158.62 347.401 178.718 354.722 186.567 358.009V373.134H32.1679C21.5274 373.134 12.8681 364.475 12.8681 353.834V102.936C12.8681 99.3852 9.98592 96.503 6.43505 96.503C2.88418 96.503 0.00201416 99.3852 0.00201416 102.936V353.834C0.00201416 371.57 14.4317 386.001 32.1687 386.001H353.833C371.569 386.001 386 371.571 386 353.834V102.936C385.999 99.3844 383.124 96.5022 379.566 96.5022Z" fill="black"/>
<path d="M219.428 144.456C220.566 146.682 222.831 147.968 225.173 147.968C226.15 147.968 227.154 147.743 228.087 147.267C228.466 147.074 266.333 127.838 285.009 121.939C288.393 120.865 290.271 117.249 289.197 113.865C288.129 110.481 284.539 108.596 281.123 109.665C261.45 115.886 223.841 134.993 222.246 135.803C219.08 137.411 217.82 141.285 219.428 144.456Z" fill="black"/>
<path d="M219.428 221.655C220.566 223.881 222.831 225.167 225.173 225.167C226.15 225.167 227.154 224.942 228.087 224.466C228.466 224.273 266.333 205.038 285.009 199.138C288.393 198.064 290.271 194.448 289.197 191.065C288.129 187.68 284.539 185.796 281.123 186.864C261.45 193.085 223.841 212.192 222.246 213.002C219.08 214.611 217.82 218.484 219.428 221.655Z" fill="black"/>
<path d="M155.867 119.392C116.142 110.07 70.9993 121.946 69.1017 122.455C65.673 123.374 63.6337 126.9 64.5535 130.335C65.3255 133.21 67.9242 135.102 70.7618 135.102C71.3152 135.102 71.8746 135.031 72.4347 134.883C72.866 134.761 116.329 123.329 152.935 131.917C156.376 132.722 159.857 130.579 160.667 127.118C161.477 123.664 159.329 120.203 155.867 119.392Z" fill="black"/>
<path d="M155.867 157.992C116.142 148.677 70.9993 160.546 69.1017 161.054C65.673 161.974 63.6337 165.5 64.5535 168.935C65.3255 171.81 67.9242 173.702 70.7618 173.702C71.3152 173.702 71.8746 173.631 72.4347 173.483C72.866 173.361 116.329 161.929 152.935 170.517C156.376 171.322 159.857 169.179 160.667 165.718C161.477 162.263 159.329 158.802 155.867 157.992Z" fill="black"/>
<path d="M219.428 260.255C220.566 262.481 222.831 263.767 225.173 263.767C226.15 263.767 227.154 263.542 228.087 263.066C228.466 262.873 266.333 243.637 285.009 237.738C288.393 236.664 290.271 233.048 289.197 229.664C288.129 226.281 284.539 224.395 281.123 225.464C261.45 231.685 223.841 250.792 222.246 251.602C219.08 253.21 217.82 257.084 219.428 260.255Z" fill="black"/>
<path d="M155.867 196.592C116.142 187.276 70.9993 199.139 69.1017 199.654C65.673 200.574 63.6337 204.1 64.5535 207.534C65.3255 210.41 67.9242 212.308 70.7618 212.308C71.3152 212.308 71.8746 212.231 72.4347 212.083C72.866 211.961 116.329 200.528 152.935 209.117C156.376 209.921 159.857 207.779 160.667 204.318C161.477 200.863 159.329 197.402 155.867 196.592Z" fill="black"/>
<path d="M155.867 273.791C116.142 264.469 70.9993 276.345 69.1017 276.853C65.673 277.773 63.6337 281.299 64.5535 284.734C65.3255 287.609 67.9242 289.508 70.7618 289.508C71.3152 289.508 71.8746 289.431 72.4347 289.282C72.866 289.16 116.329 277.728 152.935 286.316C156.376 287.114 159.857 284.978 160.667 281.517C161.477 278.063 159.329 274.601 155.867 273.791Z" fill="black"/>
<path d="M155.867 235.191C116.142 225.869 70.9993 237.739 69.1017 238.254C65.673 239.173 63.6337 242.699 64.5535 246.134C65.3255 249.009 67.9242 250.908 70.7618 250.908C71.3152 250.908 71.8746 250.831 72.4347 250.682C72.866 250.56 116.329 239.128 152.935 247.717C156.376 248.521 159.857 246.378 160.667 242.917C161.477 239.463 159.329 236.002 155.867 235.191Z" fill="black"/>
<path d="M521.8 337L439.76 237.04L514.8 142.4H544.48L467.48 235.08V236.76L553.16 337H521.8ZM415.4 337L416.24 238.16L415.4 142.4H438.92V337H415.4ZM574.762 146.32V122.52H603.322V146.32H574.762ZM577.282 337V174.04H600.522V337H577.282ZM701.02 340.92C692.993 340.92 685.993 339.613 680.02 337C674.046 334.2 669.38 328.973 666.02 321.32C662.846 313.48 661.26 301.907 661.26 286.6V201.76H642.78V187.2L662.1 183.28L668.26 145.2H684.5V183.56H716.98V202.32H684.5V288.28C684.5 298.547 684.78 306.013 685.34 310.68C685.9 315.347 687.3 318.333 689.54 319.64C691.966 320.76 695.98 321.32 701.58 321.32C706.06 321.32 709.7 321.227 712.5 321.04C715.3 320.853 716.7 320.76 716.7 320.76V339.52C716.7 339.52 715.3 339.707 712.5 340.08C709.7 340.64 705.873 340.92 701.02 340.92ZM791.252 340.64C778.185 340.64 767.545 336.16 759.332 327.2C751.305 318.24 747.292 305.453 747.292 288.84C747.292 275.587 749.905 265.227 755.132 257.76C760.545 250.107 768.105 244.693 777.812 241.52C787.519 238.347 798.812 236.76 811.692 236.76H841.372C841.372 227.427 841.092 219.307 840.532 212.4C840.159 205.307 838.665 200.08 836.052 196.72C834.185 194.107 831.572 192.427 828.212 191.68C825.039 190.933 821.679 190.56 818.132 190.56C810.852 190.56 803.665 191.307 796.572 192.8C789.665 194.107 783.319 195.693 777.532 197.56C771.932 199.427 767.452 201.107 764.092 202.6C760.732 203.907 759.052 204.56 759.052 204.56L750.932 186.36C750.932 186.36 752.705 185.613 756.252 184.12C759.799 182.44 764.559 180.573 770.532 178.52C776.505 176.28 783.132 174.413 790.412 172.92C797.879 171.24 805.532 170.4 813.372 170.4C826.065 170.4 836.145 172.92 843.612 177.96C851.079 182.813 856.399 189.72 859.572 198.68C862.932 207.453 864.612 217.813 864.612 229.76V337H849.492L846.132 319.92H844.452C841.839 321.787 837.919 324.4 832.692 327.76C827.652 330.933 821.585 333.92 814.492 336.72C807.399 339.333 799.652 340.64 791.252 340.64ZM795.172 320.2C801.892 320.2 808.239 319.267 814.212 317.4C820.372 315.347 825.785 313.107 830.452 310.68C835.305 308.253 838.945 306.293 841.372 304.8V258.32C838.945 257.947 835.305 257.573 830.452 257.2C825.599 256.64 819.252 256.36 811.412 256.36C794.052 256.36 783.319 258.133 779.212 261.68C776.785 263.547 774.919 266.907 773.612 271.76C772.305 276.427 771.652 282.12 771.652 288.84C771.652 299.853 773.425 307.88 776.972 312.92C780.705 317.773 786.772 320.2 795.172 320.2ZM915.386 383.48V174.04H931.066L934.146 190.56H935.826C939.373 187.947 943.479 185.147 948.146 182.16C952.813 178.987 958.133 176.28 964.106 174.04C970.266 171.613 976.986 170.4 984.266 170.4C999.386 170.4 1011.33 176.933 1020.11 190C1029.07 202.88 1033.55 223.693 1033.55 252.44C1033.55 270.547 1031.87 285.387 1028.51 296.96C1025.15 308.347 1020.67 317.307 1015.07 323.84C1009.47 330.187 1003.12 334.573 996.026 337C988.933 339.613 981.746 340.92 974.466 340.92C967.559 340.92 960.746 340.453 954.026 339.52C947.493 338.773 942.359 338.027 938.626 337.28V383.48H915.386ZM979.786 320.2C981.839 320.2 984.359 320.013 987.346 319.64C990.519 319.08 993.319 317.773 995.746 315.72C998.359 313.48 1000.6 310.027 1002.47 305.36C1004.52 300.507 1006.11 293.507 1007.23 284.36C1008.35 275.213 1008.91 263.08 1008.91 247.96C1008.91 235.64 1008.53 226.027 1007.79 219.12C1007.23 212.027 1006.29 206.8 1004.99 203.44C1003.87 199.893 1002.47 197.373 1000.79 195.88C999.853 194.947 998.173 193.92 995.746 192.8C993.506 191.68 989.959 191.12 985.106 191.12C979.133 191.12 972.973 192.147 966.626 194.2C960.466 196.067 954.866 198.213 949.826 200.64C944.786 202.88 941.053 204.747 938.626 206.24V314.32C942.546 315.44 948.426 316.747 956.266 318.24C964.106 319.547 971.946 320.2 979.786 320.2ZM1082.87 337V126.16H1106.11V337H1082.87ZM1165.45 337V174.04H1188.69V337H1165.45ZM1243.54 337L1244.94 247.12L1243.54 126.16H1266.78V337H1243.54ZM1336.78 337L1267.06 249.08L1332.02 174.04H1361.98L1293.66 247.4V248.8L1367.02 337H1336.78Z" fill="black"/>
</svg>
